<svg xmlns="http://www.w3.org/2000/svg" viewBox="0 0 64 64">
  <defs>
    <linearGradient id="g" x1="12" x2="52" y1="8" y2="58" gradientUnits="userSpaceOnUse">
      <stop stop-color="#06b6d4"/>
      <stop offset="1" stop-color="#10b981"/>
    </linearGradient>
    <filter id="s" x="-20%" y="-20%" width="140%" height="140%">
      <feDropShadow dx="0" dy="5" stdDeviation="5" flood-color="#0891b2" flood-opacity=".28"/>
    </filter>
  </defs>
  <rect width="64" height="64" rx="18" fill="#ecfeff"/>
  <path d="M22.5 42h24.2c6.1 0 10.8-4.3 10.8-10.2 0-5.4-4-9.7-9.4-10.1C45.8 14.5 39.4 9.8 31.8 9.8c-8.4 0-15.3 6-16.6 14-5.1.9-8.7 5-8.7 10.1C6.5 38.7 10.4 42 15.8 42h6.7Z" fill="url(#g)" filter="url(#s)"/>
  <path d="M25 48l-3 6M34 48l-3 6M43 48l-3 6" stroke="#0891b2" stroke-width="4" stroke-linecap="round"/>
  <path d="M21 29.5c1.1-5.6 5.6-9.4 11-9.4 2.4 0 4.8.8 6.7 2.2" fill="none" stroke="#ecfeff" stroke-width="4" stroke-linecap="round"/>
</svg>
